<svg height="464" viewBox="0 0 464 464.10166" width="464" xmlns="http://www.w3.org/2000/svg"><path d="m410.453125 208.652344c-56.949219-.65625-102.601563-47.328125-102-104.277344.316406-43.867188 27.214844-83.152344 68-99.304688-14.238281-3.84375-28.972656-5.515624-43.710937-4.96875-78.65625.878907-141.714844 65.34375-140.855469 144-.859375 78.65625 62.199219 143.121094 140.855469 144 59.53125.273438 112.472656-37.8125 131.144531-94.34375-15.882813 10.28125-34.523438 15.480469-53.433594 14.894532zm0 0" fill="#fce666"/><path d="m375.886719 288.101562c-5.851563 0-11.691407.585938-17.425781 1.742188-4.324219-21.582031-18.304688-39.992188-37.929688-49.957031-19.628906-9.964844-42.742188-10.382813-62.71875-1.136719-18.078125-49.796875-73.101562-75.507812-122.898438-57.429688-49.796874 18.082032-75.507812 73.105469-57.429687 122.902344-43.621094 1.378906-78.078125 37.480469-77.4257812 81.121094.6562502 43.636719 36.1835942 78.6875 79.8281252 78.757812h296c48.597656 0 88-39.398437 88-88 0-48.601562-39.402344-88-88-88zm0 0" fill="#a3d4f7"/><path d="m407.886719 114.4375 24.71875 13.664062-4.71875-28.945312 20-20.496094-27.640625-4.222656-12.359375-26.335938-12.363281 26.335938-27.636719 4.222656 20 20.496094-4.722657 28.945312zm0 0" fill="#ffde3d"/></svg>