<svg height="463" viewBox="0 -43 463.84305 463" width="463" xmlns="http://www.w3.org/2000/svg"><path d="m367.835938 288.960938h8c33.539062.003906 64.164062-19.058594 78.96875-49.15625 14.804687-30.09375 11.214843-65.988282-9.253907-92.554688-20.472656-26.570312-54.265625-39.191406-87.140625-32.546875-4.324218-21.582031-18.304687-39.992187-37.933594-49.957031-19.625-9.964844-42.738281-10.382813-62.714843-1.136719-18.078125-49.796875-73.101563-75.507813-122.898438-57.429687-49.796875 18.082031-75.507812 73.105468-57.429687 122.902343-43.621094 1.375-78.078125 37.480469-77.4257815 81.117188.6562495 43.640625 36.1835935 78.691406 79.8281255 78.761719" fill="#a3d4f7"/><g fill="#b7f9fe"><path d="m191.835938 320.960938h-20.691407l18.347657-18.34375c3.03125-3.140626 2.988281-8.128907-.097657-11.214844-3.085937-3.085938-8.078125-3.128906-11.214843-.097656l-18.34375 18.34375v-20.6875c0-4.417969-3.582032-8-8-8-4.421876 0-8 3.582031-8 8v20.6875l-18.34375-18.34375c-3.140626-3.03125-8.128907-2.988282-11.214844.097656-3.085938 3.085937-3.132813 8.074218-.097656 11.214844l18.34375 18.34375h-20.6875c-4.421876 0-8 3.582031-8 8 0 4.417968 3.578124 8 8 8h20.6875l-18.34375 18.34375c-2.082032 2.007812-2.914063 4.984374-2.183594 7.78125.734375 2.796874 2.917968 4.980468 5.714844 5.710937 2.796874.734375 5.769531-.101563 7.78125-2.179687l18.34375-18.34375v20.6875c0 4.417968 3.578124 8 8 8 4.417968 0 8-3.582032 8-8v-20.6875l18.34375 18.34375c3.136718 3.03125 8.128906 2.988281 11.214843-.097657 3.085938-3.085937 3.128907-8.074219.097657-11.214843l-18.347657-18.34375h20.691407c4.417968 0 8-3.582032 8-8 0-4.417969-3.582032-8-8-8zm0 0"/><path d="m335.835938 304.960938h-20.691407l18.347657-18.34375c3.03125-3.140626 2.988281-8.128907-.097657-11.214844-3.085937-3.085938-8.078125-3.128906-11.214843-.097656l-18.34375 18.34375v-20.6875c0-4.417969-3.582032-8-8-8-4.421876 0-8 3.582031-8 8v20.6875l-18.34375-18.34375c-3.140626-3.03125-8.128907-2.988282-11.214844.097656-3.085938 3.085937-3.132813 8.074218-.097656 11.214844l18.34375 18.34375h-20.6875c-4.421876 0-8 3.582031-8 8 0 4.417968 3.578124 8 8 8h20.6875l-18.34375 18.34375c-2.082032 2.007812-2.914063 4.984374-2.183594 7.78125.734375 2.796874 2.917968 4.980468 5.714844 5.710937 2.796874.734375 5.769531-.101563 7.78125-2.179687l18.34375-18.34375v20.6875c0 4.417968 3.578124 8 8 8 4.417968 0 8-3.582032 8-8v-20.6875l18.34375 18.34375c3.136718 3.03125 8.128906 2.988281 11.214843-.097657 3.085938-3.085937 3.128907-8.074219.097657-11.214843l-18.347657-18.34375h20.691407c4.417968 0 8-3.582032 8-8 0-4.417969-3.582032-8-8-8zm0 0"/><path d="m245.492188 243.304688-18.347657-18.34375h20.691407c4.417968 0 8-3.582032 8-8 0-4.417969-3.582032-8-8-8h-20.691407l18.347657-18.34375c3.03125-3.140626 2.988281-8.128907-.097657-11.214844-3.085937-3.085938-8.078125-3.128906-11.214843-.097656l-18.34375 18.34375v-20.6875c0-4.417969-3.582032-8-8-8-4.421876 0-8 3.582031-8 8v20.6875l-18.34375-18.34375c-3.140626-3.03125-8.128907-2.988282-11.214844.097656-3.085938 3.085937-3.132813 8.074218-.097656 11.214844l18.34375 18.34375h-20.6875c-4.421876 0-8 3.582031-8 8 0 4.417968 3.578124 8 8 8h20.6875l-18.34375 18.34375c-2.082032 2.007812-2.914063 4.984374-2.183594 7.78125.734375 2.796874 2.917968 4.980468 5.714844 5.710937 2.796874.734375 5.769531-.101563 7.78125-2.179687l18.34375-18.34375v20.6875c0 4.417968 3.578124 8 8 8 4.417968 0 8-3.582032 8-8v-20.6875l18.34375 18.34375c3.136718 3.03125 8.128906 2.988281 11.214843-.097657 3.085938-3.085937 3.128907-8.074219.097657-11.214843zm0 0"/></g></svg>