<svg height="463" viewBox="0 -43 463.84305 463" width="463" xmlns="http://www.w3.org/2000/svg"><path d="m367.835938 288.960938h8c33.539062.003906 64.164062-19.058594 78.96875-49.15625 14.804687-30.09375 11.214843-65.988282-9.253907-92.554688-20.472656-26.570312-54.265625-39.191406-87.140625-32.546875-4.324218-21.582031-18.304687-39.992187-37.933594-49.957031-19.625-9.964844-42.738281-10.382813-62.714843-1.136719-18.078125-49.796875-73.101563-75.507813-122.898438-57.429687-49.796875 18.082031-75.507812 73.105468-57.429687 122.902343-43.621094 1.375-78.078125 37.480469-77.4257815 81.117188.6562495 43.640625 36.1835935 78.691406 79.8281255 78.761719" fill="#a3d4f7"/><g fill="#60a2d7"><path d="m327.835938 376.960938c-13.203126.289062-26.273438-2.714844-38.027344-8.738282-9.644532-5.066406-20.429688-7.566406-31.316406-7.261718-10.894532-.304688-21.683594 2.195312-31.328126 7.261718-11.753906 6.023438-24.824218 9.023438-38.027343 8.738282-13.195313.285156-26.257813-2.714844-38.007813-8.738282-9.632812-5.066406-20.410156-7.566406-31.292968-7.261718-4.421876 0-8-3.582032-8-8 0-4.417969 3.578124-8 8-8 13.195312-.289063 26.257812 2.714843 38.007812 8.734374 9.632812 5.070313 20.410156 7.570313 31.292969 7.265626 10.890625.304687 21.675781-2.199219 31.320312-7.265626 11.757813-6.019531 24.828125-9.023437 38.035157-8.734374 13.199218-.289063 26.261718 2.714843 38.015624 8.734374 9.644532 5.066407 20.433594 7.570313 31.328126 7.265626 4.417968 0 8 3.582031 8 8 0 4.417968-3.582032 8-8 8zm0 0"/><path d="m327.835938 280.960938c-13.203126.289062-26.273438-2.714844-38.027344-8.738282-9.644532-5.066406-20.429688-7.566406-31.316406-7.261718-10.894532-.304688-21.683594 2.195312-31.328126 7.261718-11.753906 6.023438-24.824218 9.023438-38.027343 8.738282-13.195313.285156-26.257813-2.714844-38.007813-8.738282-9.632812-5.066406-20.410156-7.566406-31.292968-7.261718-4.421876 0-8-3.582032-8-8 0-4.417969 3.578124-8 8-8 13.195312-.289063 26.257812 2.714843 38.007812 8.734374 9.632812 5.070313 20.410156 7.570313 31.292969 7.265626 10.890625.304687 21.675781-2.199219 31.320312-7.265626 11.757813-6.019531 24.828125-9.023437 38.035157-8.734374 13.199218-.289063 26.261718 2.714843 38.015624 8.734374 9.644532 5.066407 20.433594 7.570313 31.328126 7.265626 4.417968 0 8 3.582031 8 8 0 4.417968-3.582032 8-8 8zm0 0"/><path d="m327.835938 232.960938c-13.203126.289062-26.273438-2.714844-38.027344-8.738282-9.644532-5.066406-20.429688-7.566406-31.316406-7.261718-10.894532-.304688-21.683594 2.195312-31.328126 7.261718-11.753906 6.023438-24.824218 9.023438-38.027343 8.738282-13.195313.285156-26.257813-2.714844-38.007813-8.738282-9.632812-5.066406-20.410156-7.566406-31.292968-7.261718-4.421876 0-8-3.582032-8-8 0-4.417969 3.578124-8 8-8 13.195312-.289063 26.257812 2.714843 38.007812 8.734374 9.632812 5.070313 20.410156 7.570313 31.292969 7.265626 10.890625.304687 21.675781-2.199219 31.320312-7.265626 11.757813-6.019531 24.828125-9.023437 38.035157-8.734374 13.199218-.289063 26.261718 2.714843 38.015624 8.734374 9.644532 5.066407 20.433594 7.570313 31.328126 7.265626 4.417968 0 8 3.582031 8 8 0 4.417968-3.582032 8-8 8zm0 0"/><path d="m327.835938 328.960938c-13.203126.289062-26.273438-2.714844-38.027344-8.738282-9.644532-5.066406-20.429688-7.566406-31.316406-7.261718-10.894532-.304688-21.683594 2.195312-31.328126 7.261718-11.753906 6.023438-24.824218 9.023438-38.027343 8.738282-13.195313.285156-26.257813-2.714844-38.007813-8.738282-9.632812-5.066406-20.410156-7.566406-31.292968-7.261718-4.421876 0-8-3.582032-8-8 0-4.417969 3.578124-8 8-8 13.195312-.289063 26.257812 2.714843 38.007812 8.734374 9.632812 5.070313 20.410156 7.570313 31.292969 7.265626 10.890625.304687 21.675781-2.199219 31.320312-7.265626 11.757813-6.019531 24.828125-9.023437 38.035157-8.734374 13.199218-.289063 26.261718 2.714843 38.015624 8.734374 9.644532 5.066407 20.433594 7.570313 31.328126 7.265626 4.417968 0 8 3.582031 8 8 0 4.417968-3.582032 8-8 8zm0 0"/></g></svg>